# xmcd
#
# Track frame offsets:
#	150
#	17884
#	33475
#	45615
#	66501
#	84133
#	99810
#	114594
#	126228
#	144900
#
# Disc length: 2161 seconds
#
# Revision: 0
# Processed by: cddbd v1.5.2PL0 Copyright (c) Steve Scherf et al.
# Submitted via: audiograbber 1.83.01
#
DISCID=7d086f0a
DTITLE=Foghat - The Complete Bearsville Albums Collection [CD 13) - Zig-Zag Wal
DTITLE=k [remastered 2016]
DYEAR=1983
DGENRE=Rock
TTITLE0=That's What Love Can Do
TTITLE1=Zig-Zag Walk
TTITLE2=Choo Choo Ch'Boogie
TTITLE3=Jenny Don't Mind
TTITLE4=Three Wheeled Cadillac
TTITLE5=It'll Be Me
TTITLE6=Silent Treatment
TTITLE7=Down The Road A Piece
TTITLE8=Seven Day Weekend
TTITLE9=Linda Lou
EXTD=
EXTT0=
EXTT1=
EXTT2=
EXTT3=
EXTT4=
EXTT5=
EXTT6=
EXTT7=
EXTT8=
EXTT9=
PLAYORDER=
